<svg xmlns="http://www.w3.org/2000/svg" fill="none" viewBox="0 0 96 96"><g clip-path="url(#a)"><path fill="#CED2DB" fill-rule="evenodd" d="M88.515 84.84a23.7 23.7 0 0 1-16.785 6.945c-6.3 0-12.33-2.505-16.785-6.945A23.7 23.7 0 0 1 48 68.055c0-6.3 2.505-12.33 6.945-16.785a23.7 23.7 0 0 1 16.785-6.945c6.3 0 12.33 2.505 16.785 6.945a23.7 23.7 0 0 1 6.945 16.785c0 6.3-2.505 12.33-6.945 16.785" clip-rule="evenodd"/><circle cx="48" cy="26.91" r="23.68" fill="#FFFFFF" transform="rotate(-1.702 48 26.907)"/><path fill="#FFD200" fill-rule="evenodd" d="M41.115 84.93a23.7 23.7 0 0 1-16.785 6.945c-6.3 0-12.33-2.505-16.785-6.945A23.7 23.7 0 0 1 .6 68.145c0-6.3 2.505-12.33 6.945-16.785a23.7 23.7 0 0 1 16.785-6.945c6.3 0 12.33 2.505 16.785 6.945a23.7 23.7 0 0 1 6.945 16.785c0 6.3-2.505 12.33-6.945 16.785" clip-rule="evenodd"/><path fill="#0A0B0E" d="M18.71 59.832c.943.314 1.068.953.991 1.46l-1.442 4.313s.147.054.25.105l-.25-.09-2.032 6.035c-.137.277-.464.692-1.126.47.028.032-1.678-.57-1.678-.57l-1.38 2.603 3.002 1.015c.56.185 1.103.384 1.648.569l-1.292 3.827 2.311.775 1.275-3.797c.633.22 1.25.439 1.839.64l-1.273 3.769 2.311.775 1.291-3.826c3.96 1.09 7.016 1.01 8.573-2.5 1.26-2.837.319-4.609-1.72-5.879 1.577-.232 2.806-1.147 3.282-3.221.657-2.814-1.4-4.521-4.297-5.785l1.274-3.783-2.311-.775-1.238 3.68a70 70 0 0 0-1.856-.598l1.24-3.71-2.312-.775-1.274 3.783c-.516-.153-1.002-.319-1.487-.484l-3.194-1.087-.83 2.458s1.725.529 1.694.557zm5.288 1.969c1.31.442 5.549 1.4 4.642 4.123-.87 2.606-4.883.927-6.178.485l1.55-4.592zm-2.328 6.933c1.56.533 6.64 1.723 5.627 4.71-.96 2.856-5.766.887-7.326.354z"/><path fill="#0052FF" d="M48.224 3.221c-13.08-.09-23.758 10.475-23.85 23.589-.084 12.258 9.101 22.405 20.972 23.763l.125-18.096a22.48 22.48 0 0 0 11.262-10.29l-.187 26.933c8.784-3.421 15.128-11.96 15.198-21.983.09-13.129-10.44-23.825-23.52-23.916m-13.717 29.09.075-10.848c5.715.04 10.484-4.114 11.407-9.584l10.89.075c-1.04 11.487-10.672 20.453-22.372 20.373z"/><path fill="#0A0B0E" fill-rule="evenodd" d="M80.412 57.514 61.947 75.979l1.86 1.86 18.465-18.465zm-15.218 2.25c.975 0 1.755.78 1.755 1.755s-.78 1.755-1.755 1.755-1.755-.78-1.755-1.755.78-1.755 1.755-1.755m4.395 1.755a4.39 4.39 0 0 0-4.395-4.395 4.39 4.39 0 0 0-4.395 4.395 4.39 4.39 0 0 0 4.395 4.395 4.39 4.39 0 0 0 4.395-4.395m8.677 11.317c.975 0 1.755.78 1.755 1.755s-.78 1.755-1.755 1.755-1.755-.78-1.755-1.755.78-1.755 1.755-1.755m4.395 1.755a4.39 4.39 0 0 0-4.395-4.395 4.39 4.39 0 0 0-4.395 4.395 4.39 4.39 0 0 0 4.395 4.395 4.39 4.39 0 0 0 4.395-4.395" clip-rule="evenodd"/></g><defs><clipPath id="a"><path fill="#FFFFFF" d="M0 0h96v96H0z"/></clipPath></defs></svg>