<svg xmlns="http://www.w3.org/2000/svg" fill="none" viewBox="0 0 64 64"><path fill="var(--illustration-gray)" fill-rule="evenodd" d="M56 32.87a18.6 18.6 0 0 1-8 1.797c-2.863 0-5.575-.645-8-1.797v9.797h16z" clip-rule="evenodd"/><path fill="var(--illustration-accent-4)" d="M33.332 42.667h6.667V64h-6.667zm22.668 0h6.667V64H56z"/><path fill="var(--illustration-primary)" d="M40 42.667h16V64H40z"/><path fill="var(--illustration-accent-2)" d="M0 50.667h29.333V64H0zm8-29.333-1.415-6.585L0 13.334l6.585-1.415L8 5.333l1.415 6.586L16 13.334l-6.585 1.415z"/><path fill="var(--illustration-gray)" d="M22.668 29.333v-4h-2.667v4h-4V32h4v4h2.667v-4h4v-2.667z"/><path fill="var(--illustration-black)" d="M0 56h29.33v2.67H0zm33.33 0h29.33v2.67H33.33zm0-8h29.33v2.67H33.33z"/><path fill="var(--illustration-white)" d="M47.918 32c8.837 0 16-7.163 16-16s-7.163-16-16-16-16 7.163-16 16 7.163 16 16 16"/><path fill="var(--illustration-primary)" d="M47.918 0c-8.838 0-16 7.183-16 16.047 0 8.277 6.252 15.09 14.278 15.953V19.78a15.14 15.14 0 0 0 7.555-7.004v18.191c5.92-2.354 10.167-8.143 10.167-14.92 0-8.864-7.162-16.047-16-16.047m-9.131 19.705v-7.328c3.863 0 7.06-2.827 7.665-6.53h7.355c-.646 7.758-7.119 13.858-15.02 13.858"/></svg>