<svg xmlns="http://www.w3.org/2000/svg" fill="none" viewBox="0 0 49 49"><path fill="#0A0B0F" d="m41.18 8.476-1.429 1.43 2.572 2.572 1.43-1.429z"/><path fill="#B1B7C3" fill-rule="evenodd" d="M23.13 3.234h3.234v4.915a20.2 20.2 0 0 1 11.515 4.784l2.47-2.47 1.43 1.429-2.43 2.43a20.211 20.211 0 1 1-16.22-6.173zm-9.816 13.628a16.17 16.17 0 0 1 19.508-2.575l-16.15 28.017a16.16 16.16 0 0 1-8.094-14.009c0-4.288 1.703-8.4 4.736-11.433" clip-rule="evenodd"/><path fill="#0052FF" d="M24.747 48.507a20.211 20.211 0 0 1 0-40.423"/><path fill="#FFFFFF" d="M13.314 16.862a16.17 16.17 0 0 1 11.433-4.735v16.169H8.577c0-4.289 1.704-8.401 4.737-11.434"/><path fill="#0052FF" d="M24.747 8.084a20.211 20.211 0 1 1 0 40.423"/><path fill="#FFD200" d="M24.747 12.127a16.168 16.168 0 1 1 0 32.337"/><path fill="#0A0B0F" d="M22.726 4.042a2.021 2.021 0 1 1 0-4.042h4.042a2.021 2.021 0 1 1 0 4.042z"/><path fill="#0A0B0D" d="M25.805 16.292h-2.021v-2.79h2.02z"/><path fill="#5DE2F8" d="M13.314 39.729a16.17 16.17 0 0 0 11.433 4.735V28.296H8.577c0 4.288 1.704 8.4 4.737 11.433"/><path fill="#0A0B0D" d="M36.873 30.385v-2.02h2.791v2.02zm-26.941 0v-2.02h2.79v2.02zm7.038-11.266-1.43 1.429-1.973-1.974 1.43-1.429zm19.05 19.052-1.429 1.43-1.973-1.974 1.429-1.43zm-1.258-16.916-1.43-1.429 1.974-1.974 1.43 1.43zM15.711 40.308l-1.429-1.43 1.974-1.973 1.429 1.43zm10.094 2.929h-2.021v-2.791h2.02zM24.765 18.7v7.856h6.038l-6.038 11.336v-8.097h-6.71z"/><path fill="#3CC28A" d="M12.127 6.097a6.063 6.063 0 0 0-6.063 6.064A6.064 6.064 0 0 0 0 6.097 6.063 6.063 0 0 0 6.064.034a6.06 6.06 0 0 0 6.063 6.063M3.79 48.54a3.03 3.03 0 0 0-3.032-3.03 3.03 3.03 0 0 0 3.032-3.032 3.03 3.03 0 0 0 3.03 3.032 3.03 3.03 0 0 0-3.031 3.03"/></svg>