<svg xmlns="http://www.w3.org/2000/svg" fill="none" viewBox="0 0 40 40"><path fill="#464B55" d="M3.54 36.46c-7.563-7.564-2.206-20.496 8.49-20.496l3.934.001V12.03c0-10.696 12.932-16.053 20.495-8.49s2.207 20.496-8.489 20.496h-3.934v3.934c0 10.696-12.933 16.053-20.496 8.49m24.43-20.496c3.506 0 5.26-4.238 2.782-6.716-2.479-2.479-6.716-.723-6.716 2.782v3.935zM9.248 30.752c2.478 2.479 6.716.724 6.716-2.782v-3.933H12.03c-3.505 0-5.26 4.236-2.782 6.715"/><path fill="#464B55" d="M15.976 24.034v-8.057l8.06-.007v8.064z"/><path fill="#578BFA" fill-rule="evenodd" d="M15.964 12.03c0-10.696 12.932-16.052 20.495-8.49 7.563 7.564 2.207 20.496-8.49 20.496h-3.805l-8.208-8.072.008.001zm14.788-2.782c-2.478-2.478-6.716-.723-6.716 2.782v3.935h3.934c3.505 0 5.26-4.238 2.782-6.717" clip-rule="evenodd"/><path fill="#FFFFFF" d="M15.976 24.034v-8.057l8.06-.007v8.064z"/></svg>