<svg xmlns="http://www.w3.org/2000/svg" fill="none" viewBox="0 0 40 40"><path fill="#578BFA" d="M26.25 10.5C33.844 10.5 40 16.656 40 24.25S33.844 38 26.25 38 12.5 31.844 12.5 24.25 18.656 10.5 26.25 10.5"/><path fill="#464B55" d="M2.5 23h25c1.375 0 2.5-1.125 2.5-2.5v-15C30 4.125 28.875 3 27.5 3h-25A2.507 2.507 0 0 0 0 5.5v15C0 21.875 1.125 23 2.5 23"/><path fill="#FFFFFF" d="M4 11h4v4H4z"/><path fill="#0A0B0D" d="M26.25 10.5c1.312 0 2.562.188 3.75.5v9.5c0 1.375-1.125 2.5-2.5 2.5H12.562c.625-7 6.5-12.5 13.688-12.5"/></svg>