<svg xmlns="http://www.w3.org/2000/svg" fill="none" viewBox="0 0 12 12"><path fill="#0A0B0D" d="M5.658 5.356 7.036 6l-1.378.644-.643 1.377-.643-1.377L2.994 6l1.378-.644.643-1.377z"/><path fill="#0A0B0D" d="M4.988 1.995c1.09 0 2.08.436 2.801 1.144a4 4 0 0 1 .915 1.372c.175.438.276.914.284 1.413v.071a3.99 3.99 0 0 1-4 4 4 4 0 0 1 0-8m0 1.2a2.8 2.8 0 1 0 0 5.6 2.8 2.8 0 0 0 0-5.6"/><path fill="#0A0B0D" d="M9.106 2.82a3.5 3.5 0 0 1 1.082.876c.5.605.801 1.382.801 2.228s-.3 1.622-.8 2.227a3.5 3.5 0 0 1-1.2.936V7.668a2.3 2.3 0 0 0 .8-1.728v-.016q-.001-.173-.025-.338a2.3 2.3 0 0 0-.776-1.405V2.76q.06.028.118.058"/></svg>