<svg xmlns="http://www.w3.org/2000/svg" fill="none" viewBox="0 0 240 240"><g clip-path="url(#a)"><circle cx="106.28" cy="114.66" r="66.48" fill="#FFFFFF"/><path fill="#45D9F5" d="M39.473 138.626c0 47.029 38.125 85.154 85.154 85.154s85.154-38.125 85.154-85.154z"/><path fill="#464B55" d="m221.474 57.766-7.168 7.168-6.452-6.453-10.708 10.71-7.169-7.169 10.709-10.708-6.453-6.453 7.169-7.168zm-188.135 0 7.168 7.168 6.452-6.453 10.708 10.71 7.169-7.169-10.709-10.708 6.452-6.453-7.169-7.168zM132.735 0h-16.219v53.472h16.219z"/><path fill="#464B55" d="M124.624 37.252c55.987 0 101.374 45.387 101.374 101.374S180.611 240 124.624 240 23.25 194.613 23.25 138.626 68.637 37.252 124.624 37.252m0 16.22c-47.03 0-85.154 38.125-85.154 85.154s38.125 85.154 85.154 85.154 85.154-38.125 85.154-85.154c0-47.03-38.125-85.154-85.154-85.154m-97.905-.03c0-14.76 11.963-26.718 26.723-26.718C38.682 26.724 26.72 14.76 26.72 0c0 14.76-11.964 26.724-26.719 26.724 14.755 0 26.719 11.958 26.719 26.718"/><path fill="#ECD069" d="M124.625 223.78c47.029 0 85.154-38.125 85.154-85.154 0-47.03-38.125-85.154-85.154-85.154z"/><path fill="#578BFA" d="M225.998 138.626c0-55.987-45.387-101.374-101.374-101.374v16.22c47.029 0 85.154 38.125 85.154 85.154s-38.125 85.154-85.154 85.154c-47.03 0-85.154-38.125-85.154-85.154H23.25C23.25 194.613 68.637 240 124.624 240s101.374-45.387 101.374-101.374"/><path fill="#FFFFFF" d="M39.47 138.626c0 47.029 38.124 85.153 85.153 85.153v16.22C68.636 239.998 23.25 194.613 23.25 138.626z"/><path fill="#464B55" d="M100.969 0h47.31v20.164h-47.31z"/><path fill="#0A0B0D" d="M125.766 214.586h-2V200.67h2zm0-135.736h-2V64.932h2zm59.912 61.904v-2h13.916v2zM72.566 193.373l-1.414-1.414 9.84-9.84 1.414 1.414zm-22.623-52.619v-2H63.86v2zm118.6-43.361-1.415-1.414 9.841-9.84 1.414 1.414zm-97.391-9.84 1.414-1.415 9.84 9.84-1.414 1.415zm95.977 95.98 1.414-1.414 9.84 9.84-1.414 1.414z"/><path fill="#ECD069" d="M51.237 138.626c0 11.523-9.342 20.864-20.865 20.864s-20.864-9.341-20.864-20.864 9.341-20.864 20.864-20.864 20.865 9.341 20.865 20.864"/><path fill="#0A0B0D" d="M44.016 138.626c0-7.537-6.111-13.648-13.649-13.648s-13.648 6.111-13.648 13.648c0 7.538 6.11 13.649 13.648 13.649v2l-.404-.006c-8.321-.211-15.029-6.918-15.24-15.239l-.004-.404c0-8.642 7.006-15.648 15.648-15.648l.403.005c8.456.214 15.246 7.136 15.246 15.643l-.006.404c-.214 8.455-7.135 15.245-15.643 15.245v-2c7.538 0 13.649-6.111 13.649-13.649m80.615-7.35v-38.11l-32.545 53.823h32.545v39.283l29.293-54.996z"/><path fill="#0A0B0D" d="M124.63 131.276h29.292l-29.292 54.995v-39.282h-.005V93.174l.005-.008z"/></g><defs><clipPath id="a"><path fill="#FFFFFF" d="M0 0h240v240H0z"/></clipPath></defs></svg>